<svg xmlns="http://www.w3.org/2000/svg" xmlns:xlink="http://www.w3.org/1999/xlink" version="1.1" x="0px" y="0px" viewBox="0 0 100 125" style="enable-background:new 0 0 100 100;" xml:space="preserve"><g><path d="M79,9H33v68h48V11C81,9.9,80.1,9,79,9z M69,37H45c-1.1,0-2-0.9-2-2c0-1.1,0.9-2,2-2h24c1.1,0,2,0.9,2,2   C71,36.1,70.1,37,69,37z M69,27H45c-1.1,0-2-0.9-2-2c0-1.1,0.9-2,2-2h24c1.1,0,2,0.9,2,2C71,26.1,70.1,27,69,27z"/><path d="M29,77V9h-6c-2.2,0-4,1.8-4,4v65.5c1.4-1,3.2-1.5,5-1.5H29z"/><path d="M19,86c0,2.8,2.2,5,5,5h55c1.1,0,2-0.9,2-2v-8H24C21.2,81,19,83.2,19,86z"/></g><text x="0" y="115" fill="#000000" font-size="5px" font-weight="bold" font-family="'Helvetica Neue', Helvetica, Arial-Unicode, Arial, Sans-serif">Created by Loritas Medina</text><text x="0" y="120" fill="#000000" font-size="5px" font-weight="bold" font-family="'Helvetica Neue', Helvetica, Arial-Unicode, Arial, Sans-serif">from the Noun Project</text></svg>