<svg xmlns="http://www.w3.org/2000/svg" data-name="Layer 1" viewBox="0 0 100 125" x="0px" y="0px"><title>kitchen and coocking 100</title><path d="M59.97119,57.55957a.99976.99976,0,1,0-.11719,1.99609c15.20557.88965,21.51709,3.71485,21.51709,5.03028,0,1.84082-10.35937,5.27539-30.16308,5.27539a139.69258,139.69258,0,0,1-14.34717-.708q-1.571-.16552-3.03076-.36621a.9995.9995,0,1,0-.27149,1.98047q1.48755.20508,3.09278.374a141.53392,141.53392,0,0,0,14.55664.71973c11.12451,0,32.16308-1.52051,32.16308-7.27539C83.37109,59.33594,65.46045,57.87988,59.97119,57.55957Z"/><path d="M28.20264,61.377a.99992.99992,0,1,0-.43848-1.95117c-5.86719,1.31934-8.71924,3.00781-8.71924,5.16016,0,1.93945,2.314,3.49609,7.07373,4.75879a1.01339,1.01339,0,0,0,.25684.0332,1.00007,1.00007,0,0,0,.25586-1.9668c-4.419-1.17187-5.58643-2.36035-5.58643-2.82519C21.04492,64.0332,22.541,62.65039,28.20264,61.377Z"/><path d="M51.208,94.5c17.0542,0,29.07031-8.89941,32.14258-23.80469a1.00014,1.00014,0,0,0-1.959-.40429C78.52539,84.19727,67.2417,92.5,51.208,92.5c-16.03321,0-27.3169-8.30273-30.1836-22.209a1.00013,1.00013,0,0,0-1.959.40429C22.13818,85.60059,34.1543,94.5,51.208,94.5Z"/><path d="M45.29639,6.11523a1.00016,1.00016,0,0,0-.418,1.82325l5.61963,3.74267-2.7544,2.36231a1,1,0,0,0-.03076,1.49121L48.93835,16.676c-.37365,1.711-2.03033,7.28736-7.93347,8.42267-2.51684.48352-3.92175-1.676-4.45422-2.7464l.75256-.55926a.99969.99969,0,0,0,.27832-1.2876L34.92236,15.7085l4.57471-1.78662a.99961.99961,0,0,0,.52783-1.38428L37.02832,6.63672A1.00041,1.00041,0,0,0,36.4082,6.127c-.15918-.04492-.33056-.082-.51757-.12158C26.18457,3.97266,18.76318,8.19922,16.96924,16.7666a13.85487,13.85487,0,0,0,1.99463,10.852c2.27929,3.28955,6.08984,5.57324,11.019,6.60547.38232.07959.77686.15186,1.16357.21094a.99816.99816,0,0,0,.81983-.24414l.9306-.83521a5.67415,5.67415,0,0,1,1.59088,4.26587,36.33768,36.33768,0,0,1-1.58056,6.11182c-.47071,1.46875-.95752,2.98681-1.29932,4.50195l-.17432.76123c-.8872,3.854-2.103,9.1333.91651,12.62647,2.20312,2.54785,5.6289,3.01172,8.3833,3.01172.40137,0,.78906-.00977,1.15576-.02442,3.52637-.13965,7.544-.42969,10.606-1.51758,1.95312-.69433,3.14355-1.68359,3.64013-3.02441.834-2.25391-.57519-4.71191-1.9375-7.08789l-.44189-.77637c-1.76221-3.13867-7.35742-13.89014-5.37842-20.479a6.36318,6.36318,0,0,1,2.97492-3.80792l.56512.70733-1.49072,4.38916a.99953.99953,0,0,0,.94678,1.32178.99016.99016,0,0,0,.1958-.01953C62.167,32.20166,70.16846,24.2749,69.04248,17.00684,67.813,9.07422,55.49463,4.71387,45.29639,6.11523ZM30.98779,32.38184c-.1997-.03565-.39941-.07471-.59521-.11573-4.41895-.9248-7.80225-2.92578-9.78467-5.78662a11.718,11.718,0,0,1-1.68066-9.30273c1.28271-6.127,5.98-9.65967,12.42138-9.65967a20.2883,20.2883,0,0,1,4.10791.44092l2.28565,4.502-4.6128,1.80127a.99965.99965,0,0,0-.51074,1.4165l2.78955,5.03174-4.54052,3.374a.99973.99973,0,0,0-.13526,1.48486l3.57569,3.8335ZM46.46191,31.1499c-2.1455,7.14356,3.16651,17.78809,5.54981,22.03272l.45117.792c1.13379,1.97754,2.30615,4.02344,1.79639,5.39941a3.69333,3.69333,0,0,1-2.43408,1.834c-2.80909.998-6.63916,1.26953-10.01563,1.40429-2.46924.10157-5.98682-.03125-7.94678-2.29785-2.35547-2.72461-1.27148-7.43164-.48-10.86914l.17627-.77051c.32178-1.42822.79492-2.9038,1.25244-4.33056a37.80311,37.80311,0,0,0,1.65869-6.458,7.64778,7.64778,0,0,0-2.08636-5.86511l2.01849-1.81165a1.00017,1.00017,0,0,0,.06348-1.42627L32.958,25.022l1.96167-1.45776a6.33532,6.33532,0,0,0,5.35962,3.6062,5.83147,5.83147,0,0,0,1.10351-.10791c5.99628-1.15289,8.34778-6.16089,9.19544-8.85925l1.4364,1.33777-3.15674,4.019a1,1,0,0,0,.00537,1.2417l1.21485,1.52057A8.38189,8.38189,0,0,0,46.46191,31.1499Zm6.439.79834,1.08642-3.19873a.999.999,0,0,0-.16552-.9458l-2.90137-3.63135,3.23486-4.11865a1.00042,1.00042,0,0,0-.105-1.34961l-4.15576-3.8706,2.90772-2.49366a1.00042,1.00042,0,0,0-.09668-1.59179L48.38232,7.86914c8.46973-.23877,17.74854,3.41065,18.6836,9.44434C67.95752,23.06787,61.47852,29.60986,52.90088,31.94824Z"/><path d="M36.252,54.44336a6.302,6.302,0,1,0,6.30176-6.30176A6.30934,6.30934,0,0,0,36.252,54.44336Zm10.604,0a4.302,4.302,0,1,1-4.30225-4.30176A4.30779,4.30779,0,0,1,46.856,54.44336Z"/><text x="0" y="115" fill="#000000" font-size="5px" font-weight="bold" font-family="'Helvetica Neue', Helvetica, Arial-Unicode, Arial, Sans-serif">Created by Ifki rianto</text><text x="0" y="120" fill="#000000" font-size="5px" font-weight="bold" font-family="'Helvetica Neue', Helvetica, Arial-Unicode, Arial, Sans-serif">from the Noun Project</text></svg>