<svg xmlns="http://www.w3.org/2000/svg" xmlns:xlink="http://www.w3.org/1999/xlink" version="1.1" x="0px" y="0px" viewBox="0 0 60 75" style="enable-background:new 0 0 60 60;" xml:space="preserve"><path d="M30,5C16.2200317,5,5,16.210022,5,30s11.2200317,25,25,25c13.7900391,0,25-11.210022,25-25S43.7900391,5,30,5z M30,47.75  c-2.2000122,0-4-1.789978-4-4s1.7999878-4,4-4c2.210022,0,4,1.789978,4,4S32.210022,47.75,30,47.75z M34.2000122,32.9800415  C34.1000366,35.2399902,32.2600098,37,30,37c-2.25,0-4.0999756-1.7600098-4.1900024-4.0199585l-0.6900024-15.6300049  c-0.0599976-1.3400269,0.4200439-2.6199951,1.3500366-3.5900269C27.4000244,12.7900391,28.6600342,12.25,30,12.25  c1.3500366,0,2.6000366,0.5400391,3.5400391,1.5100098c0.9299927,0.9700317,1.4099731,2.25,1.3499756,3.5900269  L34.2000122,32.9800415z"/><text x="0" y="75" fill="#000000" font-size="5px" font-weight="bold" font-family="'Helvetica Neue', Helvetica, Arial-Unicode, Arial, Sans-serif">Created by Vectorstall</text><text x="0" y="80" fill="#000000" font-size="5px" font-weight="bold" font-family="'Helvetica Neue', Helvetica, Arial-Unicode, Arial, Sans-serif">from the Noun Project</text></svg>